# xmcd
#
# Track frame offsets:
#	150
#	14285
#	29988
#	52862
#	70305
#	88690
#	110895
#	129744
#	153602
#	172262
#	191805
#	217937
#	243883
#
# Disc length: 3596 seconds
# Revision: 1
# Processed by: cddbd v1.5.2PL0 Copyright (c) Steve Scherf et al.
# Submitted via: dBpowerAMP V12.0
#
DISCID=c10e0a0d
DTITLE=Dżem - Być albo mieć
DYEAR=2000
DGENRE=Blues
TTITLE0=Być albo mieć
TTITLE1=Krewny Judasza
TTITLE2=Kruka głos
TTITLE3=Chcę ci coś powiedzieć
TTITLE4=Chociaż raz, jeden raz
TTITLE5=Niebo na wyciągnięcie ręki
TTITLE6=Za plecami
TTITLE7=Popiołu smak
TTITLE8=Ukryj mnie
TTITLE9=Zakładnik
TTITLE10=Geronimo
TTITLE11=Na swoim brzegu
TTITLE12=To ja, złodziej
EXTD=
EXTT0=
EXTT1=
EXTT2=
EXTT3=
EXTT4=
EXTT5=
EXTT6=
EXTT7=
EXTT8=
EXTT9=
EXTT10=
EXTT11=
EXTT12=
PLAYORDER=
